<svg width="167" height="171" viewBox="0 0 167 171" fill="none" xmlns="http://www.w3.org/2000/svg">
<path fill-rule="evenodd" clip-rule="evenodd" d="M24.315 86.9172C23.169 81.6038 21.9885 76.9024 21.1613 72.1337C18.9622 59.4495 22.1298 47.8341 29.5095 37.9129C39.0846 25.0441 57.0972 20.1352 70.1566 32.8113C73.0628 35.6344 74.1412 34.6155 75.5384 31.4323C77.6931 26.5245 80.0778 21.7036 82.7039 17.0513C84.4255 14.0026 85.3801 11.3681 83.4806 7.93305C81.95 5.16827 82.5358 2.77656 86.2594 2.48752C87.0348 2.42756 87.9931 2.53674 88.5418 2.11439C90.8204 0.365595 93.0174 -0.485004 95.2361 2.07746C97.6126 4.82327 99.0236 7.43978 98.1231 11.7521C97.1587 16.3632 97.9065 21.4046 98.3078 26.2225C98.3645 26.9144 100.737 28.0426 101.914 27.8943C115.967 26.1152 131.373 36.5753 135.212 50.8438C135.707 52.6831 135.753 54.7852 135.49 56.6885C134.012 67.4003 132.588 78.1298 130.669 88.7624C130.046 92.2081 130.57 93.2492 133.869 93.2011C142.648 93.0748 151.43 93.1829 160.211 93.0528C164.03 92.9966 166.715 93.7567 166.658 98.6242C166.578 105.424 165.795 107.028 160.364 106.808C154.981 106.589 149.641 105.346 144.265 104.724C138.934 104.106 133.585 103.609 128.232 103.276C127.183 103.212 125.65 103.821 125.072 104.662C122.69 108.118 120.628 111.808 118.376 115.362C116.349 118.566 115.951 121.708 117.012 125.577C119.94 136.262 122.38 147.091 125.003 157.866C125.933 161.689 121.638 169.877 117.899 170.61C116.666 170.853 114.057 169.461 113.831 168.412C111.779 158.879 110.09 149.261 108.356 139.658C107.916 137.209 107.701 134.718 107.256 131.27C102.278 137.526 98.0623 142.885 93.7723 148.18C92.0591 150.296 90.19 152.274 88.3757 154.3C86.0257 156.921 83.6895 159.186 84.2305 163.616C84.4873 165.708 81.888 168.175 80.5837 170.474C78.6863 169.287 76.2938 168.522 74.972 166.848C65.6073 154.98 56.4669 142.921 47.228 130.947C46.8763 130.491 46.2389 130.273 45.4075 129.731C44.6581 131.585 44.1151 133.246 43.344 134.784C40.5591 140.34 37.672 145.842 34.8896 151.399C34.1686 152.84 33.5213 154.364 33.1268 155.928C31.6895 161.634 27.8477 163.494 22.8946 160.495C20.8812 159.276 18.991 157.637 17.4609 155.812C15.2251 153.144 15.5129 150.671 17.6444 147.494C20.7925 142.801 22.9163 137.369 25.5269 132.28C26.101 131.162 26.8699 130.15 27.5791 129.109C29.8302 125.802 32.5977 122.739 34.1743 119.117C35.1676 116.832 34.7483 113.649 34.2945 110.994C33.954 109.002 32.0371 107.299 31.705 105.309C30.3501 97.1703 24.7405 97.4433 18.8889 97.8223C15.4201 98.045 11.9399 98.0771 8.46543 98.2114C3.6051 98.402 -0.120517 94.603 0.293103 89.6065C0.639124 85.4146 3.67683 85.4366 6.65263 85.7417C10.8884 86.1769 15.107 86.8027 19.3449 87.1838C20.9761 87.3305 22.6456 87.0194 24.315 86.9172ZM60.6274 99.8281C60.3824 99.236 60.1369 98.6445 59.8914 98.0509C58.502 99.471 56.6779 100.652 55.8119 102.357C54.0574 105.819 53.0002 109.656 51.3153 113.16C49.9913 115.914 50.3704 117.761 52.2931 120.172C60.7047 130.718 68.8946 141.459 77.0515 152.22C78.6497 154.328 79.6332 154.634 81.3454 152.37C88.3448 143.114 95.5754 134.044 102.449 124.689C103.703 122.982 104.371 120.182 104.117 118.038C103.584 113.525 102.49 109.036 101.132 104.704C100.703 103.334 98.7523 101.625 97.4155 101.543C85.164 100.787 72.8926 100.353 60.6274 99.8281ZM27.4244 64.3825C27.5791 66.9999 27.6198 69.6306 27.9267 72.2289C28.1376 74.0032 28.6652 75.744 29.1387 77.4759C30.9152 83.9664 35.0712 87.2893 41.6066 87.4445C42.8665 87.4766 44.1574 87.4525 45.3766 87.7293C48.2699 88.3893 49.5953 87.0773 50.685 84.3499C53.8233 76.5052 56.9925 68.6467 60.6526 61.0559C66.5795 48.7661 66.6604 51.7544 58.158 42.1008C52.4184 35.5873 42.0316 35.9291 35.7184 41.9975C29.2661 48.1983 26.4311 55.408 27.4244 64.3825ZM128.771 64.3855C128.367 64.3636 127.961 64.3416 127.555 64.3205C129.262 56.0317 127.952 48.9425 120.829 43.8689C116.008 40.4331 111.338 36.8608 105.039 37.254C100.604 37.5297 99.0329 39.4021 99.8539 43.9109C100.991 50.156 102.137 56.4007 103.444 62.6075C105.256 71.199 107.044 79.8066 109.28 88.2828C109.69 89.8351 112.044 91.1209 113.763 91.9276C115.09 92.5491 116.867 92.0298 118.373 92.3607C121.736 93.0988 123.785 92.3045 124.425 88.3732C125.733 80.3523 127.309 72.3794 128.771 64.3855ZM90.1963 47.051C89.7383 46.9589 89.2814 46.8685 88.8234 46.7772C87.9559 48.2375 87.0792 49.6927 86.2187 51.1588C83.3625 56.0287 81.6874 62.3326 74.1448 61.375C73.43 61.2848 72.2221 62.5184 71.7873 63.4198C69.105 68.9728 66.3128 74.4946 64.0694 80.244C60.9966 88.1227 61.1648 88.4915 69.2716 89.3196C78.9143 90.3046 88.6109 90.7296 98.7214 91.4277C95.7384 75.9046 92.9668 61.4772 90.1963 47.051ZM87.4887 28.9001C85.409 32.4352 83.3301 35.9703 81.2506 39.5054C81.7163 39.7923 82.1799 40.079 82.6457 40.3659C85.3532 37.2331 89.6063 35.0959 87.4887 28.9001ZM41.1274 103.873C41.6066 103.875 42.0877 103.875 42.5689 103.878C43.0191 102.223 44.2925 100.057 43.7092 99.0519C43.0346 97.8924 40.7236 97.758 39.1233 97.1783C38.8355 97.5814 38.5477 97.9845 38.2594 98.3876C39.214 100.217 40.1707 102.044 41.1274 103.873Z" fill="#F8F9FA"/>
</svg>
