<svg width="313" height="313" viewBox="0 0 313 313" fill="none" xmlns="http://www.w3.org/2000/svg">
    <path
        d="M168.686 7.88823L166.018 28.9238L162.09 28.4258L164.757 7.39022L159.543 6.72923L160.045 2.76497L174.474 4.59401L173.971 8.55827L168.686 7.88823Z"
        fill="#F8F9FA" />
    <path
        d="M190.011 32.4421L199.285 9.0107L210.499 13.4481L209.042 17.1302L201.544 14.1631L199.212 20.0544L203.798 21.8691L201.369 24.9732L197.821 23.5691L195.065 30.5316L202.496 33.4722L201.158 36.853L190.011 32.4421Z"
        fill="#F8F9FA" />
    <path
        d="M240.531 33.849C240.274 33.426 239.922 32.9927 239.472 32.5489C239.037 32.0857 238.596 31.6922 238.149 31.3685C237.508 30.9039 236.9 30.5972 236.327 30.4484C235.772 30.3136 235.245 30.3464 234.744 30.5467C234.243 30.7471 233.774 31.1485 233.338 31.7511L226.411 41.3137C225.974 41.9162 225.729 42.4796 225.676 43.0037C225.636 43.5084 225.747 43.989 226.009 44.4455C226.305 44.8966 226.744 45.3333 227.327 45.7556C227.93 46.192 228.565 46.563 229.233 46.8687C229.9 47.1744 230.497 47.4141 231.023 47.5878C231.569 47.7755 231.897 47.8948 232.009 47.9458L230.258 51.3448C229.197 51.0505 228.204 50.7022 227.281 50.3C226.343 49.9172 225.505 49.4583 224.766 48.9233C223.561 48.0506 222.676 47.0836 222.111 46.0225C221.579 44.9561 221.39 43.8264 221.543 42.6333C221.716 41.4543 222.245 40.2526 223.132 39.0281L230.038 29.4947C230.968 28.2119 231.992 27.3091 233.111 26.7864C234.25 26.2778 235.393 26.1124 236.538 26.2901C237.717 26.4625 238.841 26.9358 239.91 27.71C240.61 28.2168 241.247 28.811 241.82 29.4928C242.407 30.155 242.924 30.9145 243.37 31.7711L240.531 33.849Z"
        fill="#F8F9FA" />
    <path
        d="M264.424 63.3939L272.406 56.891L274.908 59.9609L255.37 75.8771L252.869 72.8072L261.493 65.7814L256.695 59.8928L248.07 66.9186L245.546 63.8208L265.084 47.9046L267.608 51.0024L259.625 57.5053L264.424 63.3939Z"
        fill="#F8F9FA" />
    <path
        d="M297.521 97.5758L274.363 107.512L272.773 103.806L284.607 88.1131L268.925 94.841L267.349 91.1688L290.508 81.2331L292.084 84.9052L279.753 100.811L295.931 93.8706L297.521 97.5758Z"
        fill="#F8F9FA" />
    <path
        d="M299.283 122.514C301.711 122.199 303.643 122.638 305.081 123.831C306.542 125.02 307.426 126.793 307.732 129.15C308.037 131.506 307.609 133.425 306.446 134.907C305.283 136.389 303.535 137.281 301.203 137.584L289.743 139.071C288.291 139.259 286.99 139.114 285.838 138.634C284.711 138.151 283.787 137.375 283.068 136.307C282.375 135.26 281.931 133.986 281.737 132.487C281.555 131.082 281.651 129.775 282.026 128.565C282.402 127.354 283.068 126.336 284.026 125.51C284.987 124.708 286.24 124.206 287.787 124.005L299.283 122.514ZM289.016 127.876C288.254 127.974 287.605 128.192 287.068 128.528C286.557 128.884 286.181 129.345 285.94 129.908C285.725 130.493 285.668 131.166 285.766 131.927C285.865 132.689 286.103 133.312 286.481 133.795C286.858 134.278 287.351 134.626 287.959 134.837C288.567 135.049 289.24 135.107 289.978 135.011L299.582 133.765C300.605 133.632 301.424 133.417 302.039 133.119C302.654 132.822 303.082 132.391 303.324 131.827C303.589 131.26 303.663 130.525 303.545 129.62C303.437 128.787 303.194 128.129 302.817 127.646C302.44 127.162 301.901 126.833 301.2 126.657C300.527 126.503 299.678 126.492 298.655 126.625L289.016 127.876Z"
        fill="#F8F9FA" />
    <path
        d="M293.673 202.34C292.066 203.149 290.425 203.26 288.749 202.672C287.911 202.378 287.185 201.945 286.572 201.374C285.958 200.802 285.461 200.119 285.079 199.323C284.689 198.551 284.474 197.75 284.434 196.922C284.386 196.117 284.509 195.295 284.803 194.458C285.399 192.759 286.497 191.517 288.096 190.73C288.883 190.37 289.691 190.17 290.519 190.13C291.347 190.09 292.18 190.217 293.018 190.511C294.694 191.1 295.917 192.178 296.69 193.746C297.43 195.405 297.51 197.061 296.93 198.714C296.349 200.367 295.264 201.576 293.673 202.34Z"
        fill="#F8F9FA" />
    <path
        d="M255.919 238.422L273.619 256.36L270.774 259.166L255.654 243.842L249.221 250.187L246.642 247.573L255.919 238.422Z"
        fill="#F8F9FA" />
    <path
        d="M245.308 277.53L247.315 280.733L241.884 284.135L228.504 262.781L231.891 260.659L243.226 278.75L245.308 277.53Z"
        fill="#F8F9FA" />
    <path
        d="M211.745 273.252L220.071 297.037L208.688 301.021L207.379 297.283L214.991 294.619L212.897 288.639L208.242 290.268L208.047 286.332L211.649 285.071L209.175 278.004L201.631 280.644L200.43 277.212L211.745 273.252Z"
        fill="#F8F9FA" />
    <path
        d="M176.167 309.206C174.78 309.313 173.552 309.155 172.484 308.732C171.392 308.311 170.522 307.644 169.874 306.731C169.228 305.842 168.853 304.728 168.75 303.388C168.692 302.646 168.735 301.957 168.879 301.32C168.998 300.685 169.218 300.102 169.538 299.572C169.858 299.042 170.267 298.565 170.764 298.141C170.022 297.886 169.353 297.492 168.759 296.96C168.14 296.43 167.643 295.758 167.267 294.945C166.869 294.157 166.628 293.213 166.543 292.112C166.428 290.629 166.627 289.301 167.138 288.131C167.651 286.984 168.458 286.055 169.559 285.344C170.637 284.659 172.014 284.252 173.689 284.123L181.586 283.513L183.526 308.638L176.167 309.206ZM177.026 298.813C176.093 298.885 175.346 299.039 174.787 299.275C174.205 299.537 173.801 299.917 173.575 300.416C173.327 300.94 173.235 301.621 173.3 302.459C173.357 303.201 173.534 303.777 173.83 304.187C174.127 304.598 174.557 304.877 175.123 305.026C175.664 305.177 176.341 305.221 177.155 305.158L179.237 304.998L178.749 298.68L177.026 298.813ZM175.013 287.703C174.414 287.75 173.8 287.893 173.168 288.135C172.539 288.4 172.018 288.825 171.606 289.411C171.194 289.996 171.028 290.803 171.107 291.832C171.17 292.646 171.389 293.303 171.765 293.803C172.14 294.304 172.673 294.66 173.364 294.872C174.054 295.083 174.914 295.149 175.943 295.07L178.455 294.876L177.884 287.482L175.013 287.703Z"
        fill="#F8F9FA" />
    <path
        d="M146.704 285.544L142.182 310.335L130.317 308.171L131.028 304.276L138.961 305.722L140.098 299.489L135.246 298.604L137.022 295.086L140.776 295.771L142.12 288.404L134.258 286.97L134.91 283.393L146.704 285.544Z"
        fill="#F8F9FA" />
    <path
        d="M71.8346 274.912C71.5383 273.137 71.9197 271.537 72.9788 270.111C73.5084 269.398 74.137 268.834 74.8647 268.418C75.5924 268.002 76.3928 267.729 77.2659 267.6C78.1197 267.457 78.9479 267.489 79.7505 267.697C80.5338 267.89 81.282 268.251 81.9949 268.78C83.4399 269.854 84.3009 271.27 84.5779 273.031C84.6875 273.889 84.6385 274.72 84.431 275.522C84.2235 276.325 83.855 277.083 83.3255 277.795C82.2664 279.221 80.8734 280.07 79.1466 280.342C77.3427 280.557 75.7374 280.142 74.3309 279.097C72.9244 278.053 72.0923 276.657 71.8346 274.912Z"
        fill="#F8F9FA" />
    <path
        d="M35.5475 217.746C36.9211 217.059 38.2251 216.768 39.4595 216.875C40.6939 216.982 41.8104 217.416 42.809 218.178C43.7861 218.95 44.6077 220.002 45.2737 221.332C45.9398 222.663 46.2946 223.961 46.3381 225.228C46.3601 226.505 46.044 227.67 45.3897 228.722C44.7355 229.774 43.7215 230.643 42.348 231.331L25.8005 239.612L24.0118 236.039L39.9475 228.064C40.6558 227.709 41.1977 227.29 41.5731 226.807C41.9378 226.303 42.1308 225.75 42.152 225.149C42.1732 224.548 42.0065 223.893 41.652 223.185C41.3082 222.498 40.8786 221.989 40.3633 221.656C39.8265 221.334 39.2468 221.168 38.6242 221.158C37.9802 221.158 37.3255 221.325 36.6602 221.658L20.7889 229.601L19.0001 226.027L35.5475 217.746Z"
        fill="#F8F9FA" />
    <path
        d="M10.7865 192.833L31.5698 188.63L32.3549 192.512L11.5716 196.714L12.6136 201.866L8.69689 202.658L5.81349 188.403L9.73021 187.611L10.7865 192.833Z"
        fill="#F8F9FA" />
    <path
        d="M8.82037 163.655C6.37667 163.509 4.56046 162.716 3.37176 161.276C2.15909 159.833 1.62315 157.926 1.76394 155.554C1.90473 153.182 2.68505 151.377 4.10491 150.139C5.52476 148.901 7.40862 148.352 9.75649 148.491L21.2922 149.176C22.7536 149.263 24.0049 149.649 25.046 150.336C26.0632 151.022 26.8252 151.957 27.3319 153.141C27.8161 154.299 28.0134 155.633 27.9238 157.143C27.8399 158.556 27.5003 159.822 26.9049 160.941C26.3096 162.06 25.4642 162.935 24.3688 163.567C23.2749 164.176 21.9493 164.434 20.392 164.341L8.82037 163.655ZM19.9101 160.31C20.6767 160.355 21.3553 160.263 21.946 160.034C22.5141 159.779 22.9695 159.397 23.3122 158.889C23.6324 158.355 23.8153 157.704 23.8608 156.938C23.9063 156.171 23.789 155.515 23.5088 154.969C23.2286 154.424 22.8096 153.99 22.2517 153.669C21.6937 153.347 21.0434 153.164 20.3007 153.12L10.6338 152.546C9.60356 152.485 8.75864 152.543 8.09898 152.721C7.43932 152.898 6.93812 153.241 6.59538 153.749C6.22869 154.256 6.01832 154.965 5.96428 155.876C5.9145 156.714 6.0297 157.406 6.30987 157.952C6.59003 158.497 7.0577 158.922 7.71288 159.225C8.34552 159.503 9.17694 159.673 10.2071 159.734L19.9101 160.31Z"
        fill="#F8F9FA" />
    <path
        d="M8.23486 114.748C8.53689 113.862 8.96386 113.019 9.51577 112.218C10.0677 111.417 10.7742 110.758 11.6354 110.24C12.4966 109.722 13.5573 109.437 14.8175 109.385C16.0551 109.325 17.5144 109.582 19.1954 110.154C21.0582 110.789 22.4953 111.52 23.5067 112.347C24.5032 113.143 25.1841 114.009 25.5497 114.945C25.9152 115.88 26.0606 116.83 25.9857 117.794C25.9186 118.734 25.7263 119.67 25.4088 120.602L24.1658 124.247L30.8445 126.524L29.5551 130.306L5.70249 122.176L8.23486 114.748ZM20.5879 123.028L21.3546 120.779C21.6566 119.893 21.8593 119.113 21.9625 118.438C22.0658 117.763 22.0167 117.163 21.8154 116.638C21.5913 116.106 21.1695 115.632 20.5499 115.218C19.9381 114.781 19.0529 114.366 17.8944 113.971C16.8267 113.607 15.9513 113.423 15.2683 113.418C14.5703 113.383 14.0039 113.52 13.5692 113.828C13.1117 114.128 12.7292 114.581 12.4215 115.186C12.1138 115.791 11.8089 116.537 11.5069 117.423L10.7402 119.672L20.5879 123.028Z"
        fill="#F8F9FA" />
    <path
        d="M23.0992 87.0627L19.9026 85.0452L23.3233 79.6266L44.6339 93.0766L42.5007 96.4556L24.4477 85.0616L23.0992 87.0627Z"
        fill="#F8F9FA" />
    <path
        d="M55.2249 76.3777L37.3746 58.5899L45.8884 50.0483L48.6934 52.8435L43.0007 58.5549L47.4887 63.0273L50.9705 59.5341L52.8602 62.9927L50.1663 65.6955L55.4704 70.981L61.1123 65.3205L63.6879 67.8871L55.2249 76.3777Z"
        fill="#F8F9FA" />
    <path
        d="M106.342 20.6945C107.973 21.454 109.077 22.6736 109.653 24.3534C109.942 25.1932 110.052 26.0309 109.983 26.8664C109.915 27.7018 109.687 28.516 109.3 29.3087C108.935 30.0937 108.44 30.7585 107.815 31.3029C107.212 31.8396 106.491 32.2521 105.651 32.5404C103.949 33.1249 102.294 33.0334 100.685 32.2661C99.915 31.8708 99.2576 31.3606 98.7131 30.7355C98.1686 30.1104 97.7521 29.378 97.4637 28.5381C96.8869 26.8584 96.9747 25.2296 97.7271 23.6518C98.5703 22.0429 99.8204 20.954 101.477 20.3851C103.135 19.8162 104.756 19.9193 106.342 20.6945Z"
        fill="#F8F9FA" />
</svg>
    