<svg width="49" height="49" viewBox="0 0 49 49" fill="none" xmlns="http://www.w3.org/2000/svg">
<path fill-rule="evenodd" clip-rule="evenodd" d="M7.03803 24.8856C6.70273 23.3869 6.3573 22.0607 6.11525 20.7157C5.47178 17.138 6.39865 13.8617 8.55795 11.0633C11.3597 7.43354 16.6302 6.04893 20.4514 9.62437C21.3017 10.4207 21.6173 10.1333 22.0261 9.23541C22.6565 7.8511 23.3543 6.49132 24.1227 5.17909C24.6265 4.31915 24.9058 3.57606 24.35 2.60718C23.9021 1.82734 24.0736 1.15273 25.1631 1.07121C25.39 1.05429 25.6703 1.08509 25.8309 0.965963C26.4976 0.472694 27.1405 0.232773 27.7897 0.955545C28.485 1.73003 28.8979 2.46805 28.6344 3.6844C28.3522 4.98499 28.571 6.40699 28.6884 7.76594C28.705 7.96109 29.3992 8.27931 29.7436 8.23747C33.8554 7.73567 38.3633 10.686 39.4866 14.7106C39.6315 15.2294 39.6451 15.8224 39.5681 16.3592C39.1356 19.3806 38.7188 22.407 38.1574 25.406C37.9751 26.3779 38.1284 26.6716 39.0936 26.658C41.6623 26.6224 44.2323 26.6529 46.8016 26.6162C47.9189 26.6003 48.7045 26.8147 48.6879 28.1876C48.6643 30.1056 48.4353 30.5581 46.8462 30.4959C45.2711 30.4343 43.7086 30.0836 42.1356 29.9081C40.5758 29.7339 39.0106 29.5936 37.4443 29.4997C37.1373 29.4816 36.6888 29.6536 36.5198 29.8906C35.8226 30.8654 35.2193 31.9063 34.5605 32.9088C33.9674 33.8123 33.8509 34.6988 34.1615 35.7901C35.018 38.8038 35.7321 41.8583 36.4996 44.8975C36.7715 45.9757 35.5151 48.2852 34.421 48.4921C34.06 48.5605 33.2968 48.168 33.2307 47.8721C32.6301 45.1831 32.136 42.4704 31.6287 39.7617C31.4998 39.0709 31.437 38.3682 31.3067 37.3957C29.8501 39.1603 28.6166 40.672 27.3614 42.1655C26.8601 42.7624 26.3132 43.3201 25.7823 43.8916C25.0947 44.631 24.4111 45.2696 24.5694 46.5194C24.6446 47.1094 23.884 47.8053 23.5024 48.4536C22.9472 48.1188 22.2471 47.9032 21.8604 47.4309C19.1202 44.0833 16.4457 40.6821 13.7424 37.3046C13.6395 37.1762 13.453 37.1146 13.2097 36.9618C12.9905 37.4845 12.8316 37.953 12.606 38.3869C11.7911 39.954 10.9463 41.5058 10.1322 43.0734C9.92122 43.4797 9.73183 43.9095 9.61638 44.3509C9.19582 45.9604 8.07171 46.4849 6.62242 45.6391C6.03329 45.2952 5.48022 44.833 5.0325 44.3181C4.37833 43.5656 4.46253 42.868 5.08621 41.9719C6.00735 40.6481 6.62876 39.116 7.39265 37.6808C7.56061 37.3652 7.78561 37.08 7.99311 36.7863C8.6518 35.8535 9.46156 34.9896 9.92287 33.9678C10.2135 33.3234 10.0908 32.4257 9.95804 31.6766C9.85844 31.1148 9.29754 30.6345 9.20035 30.0733C8.80392 27.7776 7.16253 27.8545 5.45036 27.9614C4.43537 28.0243 3.41707 28.0333 2.40042 28.0712C0.978279 28.125 -0.111843 27.0534 0.00918301 25.6441C0.110429 24.4617 0.999266 24.4679 1.86999 24.554C3.10937 24.6767 4.34376 24.8532 5.58376 24.9607C6.06107 25.0021 6.54956 24.9144 7.03803 24.8856ZM17.6631 28.5272C17.5914 28.3602 17.5196 28.1934 17.4478 28.0259C17.0412 28.4265 16.5075 28.7597 16.2541 29.2406C15.7407 30.217 15.4314 31.2993 14.9384 32.2877C14.551 33.0643 14.6619 33.5854 15.2245 34.2654C17.6857 37.2402 20.0821 40.2696 22.4688 43.3049C22.9365 43.8994 23.2243 43.9859 23.7252 43.3473C25.7733 40.7364 27.889 38.1781 29.9002 35.5395C30.2672 35.0581 30.4625 34.2683 30.3882 33.6635C30.2322 32.3907 29.9123 31.1245 29.5148 29.9025C29.3892 29.516 28.8185 29.0341 28.4274 29.0108C24.8426 28.7976 21.2519 28.6753 17.6631 28.5272ZM7.94784 18.5294C7.99312 19.2676 8.00503 20.0097 8.09483 20.7426C8.15654 21.243 8.31092 21.734 8.44945 22.2225C8.96927 24.0532 10.1853 24.9905 12.0976 25.0343C12.4662 25.0433 12.844 25.0365 13.2007 25.1146C14.0473 25.3008 14.4351 24.9307 14.754 24.1614C15.6722 21.9487 16.5995 19.7321 17.6705 17.5911C19.4047 14.1246 19.4284 14.9675 16.9406 12.2446C15.2611 10.4074 12.2219 10.5038 10.3747 12.2154C8.48672 13.9645 7.65719 15.998 7.94784 18.5294ZM37.6021 18.5302C37.4838 18.524 37.3652 18.5178 37.2463 18.5119C37.7458 16.1739 37.3625 14.1743 35.2782 12.7433C33.8675 11.7742 32.5012 10.7666 30.6581 10.8775C29.3603 10.9552 28.9006 11.4834 29.1409 12.7551C29.4735 14.5166 29.8088 16.278 30.1915 18.0287C30.7214 20.4521 31.2448 22.8799 31.8991 25.2707C32.0189 25.7086 32.7076 26.0712 33.2108 26.2988C33.5989 26.4741 34.1189 26.3276 34.5596 26.4209C35.5435 26.6291 36.1432 26.4051 36.3303 25.2962C36.7133 23.0339 37.1741 20.785 37.6021 18.5302ZM26.315 13.6408C26.181 13.6149 26.0473 13.5894 25.9133 13.5636C25.6595 13.9755 25.4029 14.3859 25.1512 14.7995C24.3154 16.1731 23.8253 17.9512 21.6183 17.6811C21.4092 17.6556 21.0557 18.0036 20.9285 18.2578C20.1437 19.8241 19.3267 21.3816 18.6702 23.0033C17.7711 25.2256 17.8204 25.3296 20.1924 25.5632C23.0139 25.841 25.8511 25.9609 28.8095 26.1578C27.9366 21.7793 27.1257 17.7099 26.315 13.6408ZM25.5228 8.52118C24.9142 9.51829 24.3059 10.5154 23.6975 11.5125C23.8338 11.5935 23.9694 11.6743 24.1057 11.7552C24.8979 10.8716 26.1424 10.2688 25.5228 8.52118ZM11.9574 29.6682C12.0976 29.6688 12.2384 29.6688 12.3792 29.6694C12.5109 29.2027 12.8835 28.5917 12.7128 28.3083C12.5154 27.9812 11.8392 27.9433 11.371 27.7798C11.2868 27.8935 11.2026 28.0072 11.1182 28.1209C11.3975 28.637 11.6774 29.1523 11.9574 29.6682Z" fill="#262626"/>
</svg>
